<?xml version="1.0" encoding="UTF-8"?>
<svg xmlns="http://www.w3.org/2000/svg" xmlns:xlink="http://www.w3.org/1999/xlink" width="3000" height="3000" viewBox="0 0 3000 3000">
<defs>
<clipPath id="clip-0">
<path clip-rule="nonzero" d="M 919 711 L 2422 711 L 2422 1816 L 919 1816 Z M 919 711 "/>
</clipPath>
<clipPath id="clip-1">
<path clip-rule="nonzero" d="M 958.859375 1704.289062 C 942.558594 1655.941406 930.886719 1605.550781 924.589844 1553.300781 C 1060.761719 1553.121094 1183.960938 1552.011719 1278.070312 1550.148438 C 1271.03125 1555.898438 1264.179688 1561.640625 1257.511719 1566.828125 C 1236.019531 1583.320312 1217.859375 1599.429688 1192.660156 1609.988281 C 1177.839844 1616.289062 1149.5 1620.179688 1133.378906 1622.589844 C 1117.628906 1625.191406 1101.890625 1627.21875 1086.140625 1629.449219 C 1077.621094 1630.738281 1063.539062 1632.039062 1055.761719 1635.011719 C 1047.230469 1637.96875 1036.300781 1647.789062 1029.261719 1653.71875 C 1018.519531 1662.800781 1007.960938 1671.691406 997.027344 1680.210938 C 987.578125 1687.429688 976.832031 1695.21875 966.085938 1700.589844 C 963.863281 1701.890625 961.453125 1703 958.859375 1704.289062 Z M 1670.648438 711.28125 C 1841.28125 711.28125 1998.558594 768.148438 2124.730469 864.121094 C 1883.328125 865.421875 1706.589844 870.050781 1706.589844 875.421875 C 1706.589844 880.980469 1897.410156 885.609375 2153.261719 886.910156 C 2251.640625 969.351562 2327.589844 1075.878906 2373.171875 1195.929688 C 2095.089844 1196.671875 1881.851562 1201.671875 1881.851562 1207.601562 C 1881.851562 1213.53125 2099.351562 1218.351562 2381.511719 1219.089844 C 2406.519531 1292.078125 2420.601562 1370.261719 2421.710938 1451.410156 C 2266.269531 1453.449219 2163.820312 1457.148438 2163.820312 1461.230469 C 2163.820312 1465.300781 2266.269531 1468.820312 2421.890625 1471.050781 C 2421.519531 1506.800781 2418.558594 1542.191406 2413.371094 1576.648438 C 2195.128906 1578.308594 2040.058594 1582.578125 2040.058594 1587.578125 C 2040.058594 1592.578125 2193.460938 1596.839844 2409.671875 1598.511719 C 2395.589844 1675.761719 2369.648438 1748.941406 2333.890625 1815.820312 C 2248.121094 1774.511719 2158.449219 1741.160156 2067.300781 1715.410156 C 1935.019531 1677.988281 1798.480469 1660.019531 1664.53125 1629.449219 C 1654.53125 1627.21875 1643.601562 1625.929688 1633.410156 1624.628906 C 1619.511719 1622.589844 1605.800781 1620.179688 1591.910156 1617.03125 C 1571.71875 1612.398438 1536.699219 1602.578125 1524.660156 1584.800781 C 1509.46875 1562.011719 1489.460938 1542 1467.96875 1525.140625 C 1458.328125 1517.359375 1447.21875 1509.578125 1436.46875 1503.648438 L 1429.25 1499.578125 L 1421.28125 1500.691406 C 1397.75 1504.019531 1329.390625 1512.921875 1312.53125 1524.03125 C 1308.078125 1527 1303.640625 1530.148438 1299.191406 1533.480469 C 1202.300781 1531.441406 1069.828125 1529.960938 922.179688 1529.769531 C 920.140625 1507.730469 919.214844 1485.308594 919.214844 1462.710938 C 919.214844 1459.929688 919.214844 1457.339844 919.402344 1454.738281 C 1107.441406 1452.890625 1236.570312 1448.808594 1236.570312 1444.371094 C 1236.570312 1439.921875 1115.410156 1436.03125 936.628906 1433.988281 C 1062.789062 1431.769531 1143.011719 1428.621094 1143.011719 1424.921875 C 1143.011719 1421.210938 1055.941406 1417.878906 920.695312 1415.648438 C 923.476562 1371.738281 929.960938 1328.761719 939.964844 1287.078125 C 1244.539062 1286.710938 1486.679688 1281.519531 1486.679688 1275.21875 C 1486.679688 1269.109375 1247.691406 1263.921875 945.894531 1263.550781 C 950.152344 1247.800781 955.15625 1232.238281 960.34375 1216.859375 C 1123.011719 1214.828125 1231.199219 1211.121094 1231.199219 1206.859375 C 1231.199219 1202.78125 1126.148438 1199.078125 967.570312 1197.039062 C 980.90625 1161.660156 997.027344 1127.378906 1015.371094 1094.769531 C 1218.789062 1093.109375 1360.878906 1088.851562 1360.878906 1084.03125 C 1360.878906 1079.398438 1224.53125 1075.320312 1027.78125 1073.46875 C 1051.121094 1034.929688 1078.359375 998.070312 1108.179688 964.351562 C 1425.539062 964.351562 1682.128906 959.160156 1682.128906 952.679688 C 1682.128906 946.378906 1437.210938 941.191406 1130.050781 940.820312 C 1266.589844 799.28125 1458.328125 711.28125 1670.648438 711.28125 Z M 1670.648438 711.28125 "/>
</clipPath>
<clipPath id="clip-2">
<path clip-rule="nonzero" d="M 958.859375 1704.289062 C 942.558594 1655.941406 930.886719 1605.550781 924.589844 1553.300781 C 1060.761719 1553.121094 1183.960938 1552.011719 1278.070312 1550.148438 C 1271.03125 1555.898438 1264.179688 1561.640625 1257.511719 1566.828125 C 1236.019531 1583.320312 1217.859375 1599.429688 1192.660156 1609.988281 C 1177.839844 1616.289062 1149.5 1620.179688 1133.378906 1622.589844 C 1117.628906 1625.191406 1101.890625 1627.21875 1086.140625 1629.449219 C 1077.621094 1630.738281 1063.539062 1632.039062 1055.761719 1635.011719 C 1047.230469 1637.96875 1036.300781 1647.789062 1029.261719 1653.71875 C 1018.519531 1662.800781 1007.960938 1671.691406 997.027344 1680.210938 C 987.578125 1687.429688 976.832031 1695.21875 966.085938 1700.589844 C 963.863281 1701.890625 961.453125 1703 958.859375 1704.289062 Z M 1670.648438 711.28125 C 1841.28125 711.28125 1998.558594 768.148438 2124.730469 864.121094 C 1883.328125 865.421875 1706.589844 870.050781 1706.589844 875.421875 C 1706.589844 880.980469 1897.410156 885.609375 2153.261719 886.910156 C 2251.640625 969.351562 2327.589844 1075.878906 2373.171875 1195.929688 C 2095.089844 1196.671875 1881.851562 1201.671875 1881.851562 1207.601562 C 1881.851562 1213.53125 2099.351562 1218.351562 2381.511719 1219.089844 C 2406.519531 1292.078125 2420.601562 1370.261719 2421.710938 1451.410156 C 2266.269531 1453.449219 2163.820312 1457.148438 2163.820312 1461.230469 C 2163.820312 1465.300781 2266.269531 1468.820312 2421.890625 1471.050781 C 2421.519531 1506.800781 2418.558594 1542.191406 2413.371094 1576.648438 C 2195.128906 1578.308594 2040.058594 1582.578125 2040.058594 1587.578125 C 2040.058594 1592.578125 2193.460938 1596.839844 2409.671875 1598.511719 C 2395.589844 1675.761719 2369.648438 1748.941406 2333.890625 1815.820312 C 2248.121094 1774.511719 2158.449219 1741.160156 2067.300781 1715.410156 C 1935.019531 1677.988281 1798.480469 1660.019531 1664.53125 1629.449219 C 1654.53125 1627.21875 1643.601562 1625.929688 1633.410156 1624.628906 C 1619.511719 1622.589844 1605.800781 1620.179688 1591.910156 1617.03125 C 1571.71875 1612.398438 1536.699219 1602.578125 1524.660156 1584.800781 C 1509.46875 1562.011719 1489.460938 1542 1467.96875 1525.140625 C 1458.328125 1517.359375 1447.21875 1509.578125 1436.46875 1503.648438 L 1429.25 1499.578125 L 1421.28125 1500.691406 C 1397.75 1504.019531 1329.390625 1512.921875 1312.53125 1524.03125 C 1308.078125 1527 1303.640625 1530.148438 1299.191406 1533.480469 C 1202.300781 1531.441406 1069.828125 1529.960938 922.179688 1529.769531 C 920.140625 1507.730469 919.214844 1485.308594 919.214844 1462.710938 C 919.214844 1459.929688 919.214844 1457.339844 919.402344 1454.738281 C 1107.441406 1452.890625 1236.570312 1448.808594 1236.570312 1444.371094 C 1236.570312 1439.921875 1115.410156 1436.03125 936.628906 1433.988281 C 1062.789062 1431.769531 1143.011719 1428.621094 1143.011719 1424.921875 C 1143.011719 1421.210938 1055.941406 1417.878906 920.695312 1415.648438 C 923.476562 1371.738281 929.960938 1328.761719 939.964844 1287.078125 C 1244.539062 1286.710938 1486.679688 1281.519531 1486.679688 1275.21875 C 1486.679688 1269.109375 1247.691406 1263.921875 945.894531 1263.550781 C 950.152344 1247.800781 955.15625 1232.238281 960.34375 1216.859375 C 1123.011719 1214.828125 1231.199219 1211.121094 1231.199219 1206.859375 C 1231.199219 1202.78125 1126.148438 1199.078125 967.570312 1197.039062 C 980.90625 1161.660156 997.027344 1127.378906 1015.371094 1094.769531 C 1218.789062 1093.109375 1360.878906 1088.851562 1360.878906 1084.03125 C 1360.878906 1079.398438 1224.53125 1075.320312 1027.78125 1073.46875 C 1051.121094 1034.929688 1078.359375 998.070312 1108.179688 964.351562 C 1425.539062 964.351562 1682.128906 959.160156 1682.128906 952.679688 C 1682.128906 946.378906 1437.210938 941.191406 1130.050781 940.820312 C 1266.589844 799.28125 1458.328125 711.28125 1670.648438 711.28125 "/>
</clipPath>
<linearGradient id="linear-pattern-0" gradientUnits="userSpaceOnUse" x1="-0.0951479" y1="0" x2="1.095241" y2="0" gradientTransform="matrix(-75.9166, -1016.49, -1016.49, 75.9166, 1693.68, 1772.95)">
<stop offset="0" stop-color="rgb(99.215698%, 84.312439%, 25.489807%)" stop-opacity="1"/>
<stop offset="0.0625" stop-color="rgb(99.215698%, 84.312439%, 25.489807%)" stop-opacity="1"/>
<stop offset="0.078125" stop-color="rgb(99.215698%, 84.312439%, 25.489807%)" stop-opacity="1"/>
<stop offset="0.0859375" stop-color="rgb(99.206543%, 84.204102%, 25.444031%)" stop-opacity="1"/>
<stop offset="0.09375" stop-color="rgb(99.186707%, 83.956909%, 25.340271%)" stop-opacity="1"/>
<stop offset="0.101562" stop-color="rgb(99.165344%, 83.676147%, 25.224304%)" stop-opacity="1"/>
<stop offset="0.109375" stop-color="rgb(99.142456%, 83.395386%, 25.106812%)" stop-opacity="1"/>
<stop offset="0.117188" stop-color="rgb(99.121094%, 83.114624%, 24.990845%)" stop-opacity="1"/>
<stop offset="0.125" stop-color="rgb(99.099731%, 82.833862%, 24.874878%)" stop-opacity="1"/>
<stop offset="0.132812" stop-color="rgb(99.076843%, 82.553101%, 24.757385%)" stop-opacity="1"/>
<stop offset="0.140625" stop-color="rgb(99.055481%, 82.272339%, 24.641418%)" stop-opacity="1"/>
<stop offset="0.148438" stop-color="rgb(99.034119%, 81.991577%, 24.523926%)" stop-opacity="1"/>
<stop offset="0.15625" stop-color="rgb(99.01123%, 81.70929%, 24.407959%)" stop-opacity="1"/>
<stop offset="0.164062" stop-color="rgb(98.989868%, 81.428528%, 24.290466%)" stop-opacity="1"/>
<stop offset="0.171875" stop-color="rgb(98.968506%, 81.147766%, 24.1745%)" stop-opacity="1"/>
<stop offset="0.179688" stop-color="rgb(98.945618%, 80.867004%, 24.057007%)" stop-opacity="1"/>
<stop offset="0.1875" stop-color="rgb(98.924255%, 80.586243%, 23.94104%)" stop-opacity="1"/>
<stop offset="0.195312" stop-color="rgb(98.902893%, 80.305481%, 23.823547%)" stop-opacity="1"/>
<stop offset="0.203125" stop-color="rgb(98.880005%, 80.024719%, 23.707581%)" stop-opacity="1"/>
<stop offset="0.210938" stop-color="rgb(98.858643%, 79.743958%, 23.590088%)" stop-opacity="1"/>
<stop offset="0.21875" stop-color="rgb(98.83728%, 79.463196%, 23.474121%)" stop-opacity="1"/>
<stop offset="0.226562" stop-color="rgb(98.814392%, 79.182434%, 23.356628%)" stop-opacity="1"/>
<stop offset="0.234375" stop-color="rgb(98.79303%, 78.901672%, 23.240662%)" stop-opacity="1"/>
<stop offset="0.242188" stop-color="rgb(98.771667%, 78.620911%, 23.123169%)" stop-opacity="1"/>
<stop offset="0.25" stop-color="rgb(98.748779%, 78.340149%, 23.007202%)" stop-opacity="1"/>
<stop offset="0.257812" stop-color="rgb(98.727417%, 78.059387%, 22.889709%)" stop-opacity="1"/>
<stop offset="0.265625" stop-color="rgb(98.706055%, 77.778625%, 22.773743%)" stop-opacity="1"/>
<stop offset="0.273438" stop-color="rgb(98.683167%, 77.497864%, 22.65625%)" stop-opacity="1"/>
<stop offset="0.28125" stop-color="rgb(98.661804%, 77.217102%, 22.540283%)" stop-opacity="1"/>
<stop offset="0.289062" stop-color="rgb(98.640442%, 76.93634%, 22.422791%)" stop-opacity="1"/>
<stop offset="0.296875" stop-color="rgb(98.617554%, 76.655579%, 22.306824%)" stop-opacity="1"/>
<stop offset="0.304688" stop-color="rgb(98.596191%, 76.374817%, 22.189331%)" stop-opacity="1"/>
<stop offset="0.3125" stop-color="rgb(98.574829%, 76.094055%, 22.073364%)" stop-opacity="1"/>
<stop offset="0.320312" stop-color="rgb(98.551941%, 75.813293%, 21.955872%)" stop-opacity="1"/>
<stop offset="0.328125" stop-color="rgb(98.530579%, 75.532532%, 21.839905%)" stop-opacity="1"/>
<stop offset="0.335938" stop-color="rgb(98.509216%, 75.25177%, 21.722412%)" stop-opacity="1"/>
<stop offset="0.34375" stop-color="rgb(98.486328%, 74.971008%, 21.606445%)" stop-opacity="1"/>
<stop offset="0.351562" stop-color="rgb(98.464966%, 74.688721%, 21.490479%)" stop-opacity="1"/>
<stop offset="0.359375" stop-color="rgb(98.443604%, 74.407959%, 21.372986%)" stop-opacity="1"/>
<stop offset="0.367188" stop-color="rgb(98.420715%, 74.127197%, 21.257019%)" stop-opacity="1"/>
<stop offset="0.375" stop-color="rgb(98.399353%, 73.846436%, 21.139526%)" stop-opacity="1"/>
<stop offset="0.382812" stop-color="rgb(98.377991%, 73.565674%, 21.02356%)" stop-opacity="1"/>
<stop offset="0.390625" stop-color="rgb(98.355103%, 73.284912%, 20.906067%)" stop-opacity="1"/>
<stop offset="0.398438" stop-color="rgb(98.33374%, 73.00415%, 20.7901%)" stop-opacity="1"/>
<stop offset="0.40625" stop-color="rgb(98.310852%, 72.723389%, 20.672607%)" stop-opacity="1"/>
<stop offset="0.414062" stop-color="rgb(98.28949%, 72.442627%, 20.556641%)" stop-opacity="1"/>
<stop offset="0.421875" stop-color="rgb(98.268127%, 72.161865%, 20.439148%)" stop-opacity="1"/>
<stop offset="0.429688" stop-color="rgb(98.245239%, 71.881104%, 20.323181%)" stop-opacity="1"/>
<stop offset="0.4375" stop-color="rgb(98.223877%, 71.600342%, 20.205688%)" stop-opacity="1"/>
<stop offset="0.445312" stop-color="rgb(98.202515%, 71.31958%, 20.089722%)" stop-opacity="1"/>
<stop offset="0.453125" stop-color="rgb(98.179626%, 71.038818%, 19.972229%)" stop-opacity="1"/>
<stop offset="0.460938" stop-color="rgb(98.158264%, 70.758057%, 19.856262%)" stop-opacity="1"/>
<stop offset="0.46875" stop-color="rgb(98.136902%, 70.477295%, 19.73877%)" stop-opacity="1"/>
<stop offset="0.476562" stop-color="rgb(98.114014%, 70.196533%, 19.622803%)" stop-opacity="1"/>
<stop offset="0.484375" stop-color="rgb(98.092651%, 69.915771%, 19.50531%)" stop-opacity="1"/>
<stop offset="0.492188" stop-color="rgb(98.071289%, 69.63501%, 19.389343%)" stop-opacity="1"/>
<stop offset="0.5" stop-color="rgb(98.048401%, 69.354248%, 19.271851%)" stop-opacity="1"/>
<stop offset="0.507812" stop-color="rgb(98.027039%, 69.073486%, 19.155884%)" stop-opacity="1"/>
<stop offset="0.515625" stop-color="rgb(98.005676%, 68.792725%, 19.038391%)" stop-opacity="1"/>
<stop offset="0.523437" stop-color="rgb(97.982788%, 68.511963%, 18.922424%)" stop-opacity="1"/>
<stop offset="0.53125" stop-color="rgb(97.961426%, 68.231201%, 18.804932%)" stop-opacity="1"/>
<stop offset="0.539063" stop-color="rgb(97.940063%, 67.950439%, 18.688965%)" stop-opacity="1"/>
<stop offset="0.546875" stop-color="rgb(97.917175%, 67.669678%, 18.571472%)" stop-opacity="1"/>
<stop offset="0.554688" stop-color="rgb(97.895813%, 67.38739%, 18.455505%)" stop-opacity="1"/>
<stop offset="0.5625" stop-color="rgb(97.874451%, 67.106628%, 18.338013%)" stop-opacity="1"/>
<stop offset="0.570312" stop-color="rgb(97.851562%, 66.825867%, 18.222046%)" stop-opacity="1"/>
<stop offset="0.578125" stop-color="rgb(97.8302%, 66.545105%, 18.104553%)" stop-opacity="1"/>
<stop offset="0.585938" stop-color="rgb(97.808838%, 66.264343%, 17.988586%)" stop-opacity="1"/>
<stop offset="0.59375" stop-color="rgb(97.78595%, 65.983582%, 17.87262%)" stop-opacity="1"/>
<stop offset="0.601563" stop-color="rgb(97.764587%, 65.70282%, 17.755127%)" stop-opacity="1"/>
<stop offset="0.609375" stop-color="rgb(97.743225%, 65.422058%, 17.63916%)" stop-opacity="1"/>
<stop offset="0.617188" stop-color="rgb(97.720337%, 65.141296%, 17.521667%)" stop-opacity="1"/>
<stop offset="0.625" stop-color="rgb(97.698975%, 64.860535%, 17.405701%)" stop-opacity="1"/>
<stop offset="0.632812" stop-color="rgb(97.677612%, 64.579773%, 17.288208%)" stop-opacity="1"/>
<stop offset="0.640625" stop-color="rgb(97.654724%, 64.299011%, 17.172241%)" stop-opacity="1"/>
<stop offset="0.648438" stop-color="rgb(97.633362%, 64.01825%, 17.054749%)" stop-opacity="1"/>
<stop offset="0.65625" stop-color="rgb(97.612%, 63.737488%, 16.938782%)" stop-opacity="1"/>
<stop offset="0.664063" stop-color="rgb(97.589111%, 63.456726%, 16.821289%)" stop-opacity="1"/>
<stop offset="0.671875" stop-color="rgb(97.567749%, 63.175964%, 16.705322%)" stop-opacity="1"/>
<stop offset="0.679688" stop-color="rgb(97.546387%, 62.895203%, 16.58783%)" stop-opacity="1"/>
<stop offset="0.6875" stop-color="rgb(97.523499%, 62.614441%, 16.471863%)" stop-opacity="1"/>
<stop offset="0.695312" stop-color="rgb(97.502136%, 62.333679%, 16.35437%)" stop-opacity="1"/>
<stop offset="0.703125" stop-color="rgb(97.480774%, 62.052917%, 16.238403%)" stop-opacity="1"/>
<stop offset="0.710938" stop-color="rgb(97.457886%, 61.772156%, 16.120911%)" stop-opacity="1"/>
<stop offset="0.71875" stop-color="rgb(97.436523%, 61.491394%, 16.004944%)" stop-opacity="1"/>
<stop offset="0.726562" stop-color="rgb(97.415161%, 61.210632%, 15.887451%)" stop-opacity="1"/>
<stop offset="0.734375" stop-color="rgb(97.392273%, 60.929871%, 15.771484%)" stop-opacity="1"/>
<stop offset="0.742187" stop-color="rgb(97.370911%, 60.649109%, 15.653992%)" stop-opacity="1"/>
<stop offset="0.75" stop-color="rgb(97.348022%, 60.368347%, 15.538025%)" stop-opacity="1"/>
<stop offset="0.757813" stop-color="rgb(97.32666%, 60.08606%, 15.420532%)" stop-opacity="1"/>
<stop offset="0.765625" stop-color="rgb(97.305298%, 59.805298%, 15.304565%)" stop-opacity="1"/>
<stop offset="0.773438" stop-color="rgb(97.28241%, 59.524536%, 15.187073%)" stop-opacity="1"/>
<stop offset="0.78125" stop-color="rgb(97.261047%, 59.243774%, 15.071106%)" stop-opacity="1"/>
<stop offset="0.789062" stop-color="rgb(97.239685%, 58.963013%, 14.953613%)" stop-opacity="1"/>
<stop offset="0.796875" stop-color="rgb(97.216797%, 58.682251%, 14.837646%)" stop-opacity="1"/>
<stop offset="0.804688" stop-color="rgb(97.195435%, 58.401489%, 14.720154%)" stop-opacity="1"/>
<stop offset="0.8125" stop-color="rgb(97.174072%, 58.120728%, 14.604187%)" stop-opacity="1"/>
<stop offset="0.820312" stop-color="rgb(97.151184%, 57.839966%, 14.486694%)" stop-opacity="1"/>
<stop offset="0.828125" stop-color="rgb(97.129822%, 57.559204%, 14.370728%)" stop-opacity="1"/>
<stop offset="0.835937" stop-color="rgb(97.108459%, 57.278442%, 14.254761%)" stop-opacity="1"/>
<stop offset="0.84375" stop-color="rgb(97.085571%, 56.997681%, 14.137268%)" stop-opacity="1"/>
<stop offset="0.851562" stop-color="rgb(97.064209%, 56.716919%, 14.021301%)" stop-opacity="1"/>
<stop offset="0.859375" stop-color="rgb(97.042847%, 56.436157%, 13.903809%)" stop-opacity="1"/>
<stop offset="0.867188" stop-color="rgb(97.019958%, 56.155396%, 13.787842%)" stop-opacity="1"/>
<stop offset="0.875" stop-color="rgb(96.998596%, 55.874634%, 13.670349%)" stop-opacity="1"/>
<stop offset="0.882812" stop-color="rgb(96.977234%, 55.593872%, 13.554382%)" stop-opacity="1"/>
<stop offset="0.890625" stop-color="rgb(96.954346%, 55.31311%, 13.43689%)" stop-opacity="1"/>
<stop offset="0.898437" stop-color="rgb(96.932983%, 55.032349%, 13.320923%)" stop-opacity="1"/>
<stop offset="0.90625" stop-color="rgb(96.911621%, 54.751587%, 13.20343%)" stop-opacity="1"/>
<stop offset="0.914062" stop-color="rgb(96.888733%, 54.470825%, 13.087463%)" stop-opacity="1"/>
<stop offset="0.921875" stop-color="rgb(96.868896%, 54.223633%, 12.985229%)" stop-opacity="1"/>
<stop offset="0.9375" stop-color="rgb(96.861267%, 54.116821%, 12.940979%)" stop-opacity="1"/>
<stop offset="1" stop-color="rgb(96.861267%, 54.116821%, 12.940979%)" stop-opacity="1"/>
</linearGradient>
</defs>
<rect x="-300" y="-300" width="3600" height="3600" fill="rgb(100%, 100%, 100%)" fill-opacity="1"/>
<g clip-path="url(#clip-0)">
<g clip-path="url(#clip-1)">
<g clip-path="url(#clip-2)">
<path fill-rule="nonzero" fill="url(#linear-pattern-0)" d="M 2503.925781 1809.691406 L 927.550781 1927.425781 L 837.179688 717.40625 L 2413.554688 599.675781 Z M 2503.925781 1809.691406 "/>
</g>
</g>
</g>
<path fill-rule="nonzero" fill="rgb(13.330078%, 51.756287%, 66.992188%)" fill-opacity="1" d="M 1083.910156 1037.339844 C 1083.910156 1037.339844 1075.949219 1145.351562 1156.71875 1285.78125 C 1182.109375 1329.871094 1208.601562 1361.738281 1229.898438 1397.5 C 1282.519531 1485.871094 1285.851562 1598.140625 1242.691406 1690.769531 C 1231.761719 1713.929688 1209.519531 1729.308594 1209.519531 1729.308594 L 1346.058594 1729.308594 C 1346.058594 1729.308594 1359.21875 1626.300781 1346.429688 1531.070312 C 1321.789062 1346.730469 1133.378906 1262.25 1120.230469 1081.058594 C 1111.148438 955.460938 1083.910156 1037.339844 1083.910156 1037.339844 "/>
<path fill-rule="nonzero" fill="rgb(13.330078%, 51.756287%, 66.992188%)" fill-opacity="1" d="M 1072.609375 1067.171875 C 1072.609375 1067.171875 966.085938 1171.660156 970.71875 1281.710938 C 975.351562 1391.941406 1049.460938 1477.351562 1049.460938 1477.351562 C 1049.460938 1477.351562 1028.148438 1378.230469 1030.191406 1323.019531 C 1042.421875 1332.46875 1051.859375 1340.621094 1051.859375 1340.621094 C 1051.859375 1340.621094 1044.078125 1274.109375 1042.96875 1229.648438 L 1060.761719 1260.21875 C 1063.539062 1197.230469 1093.550781 1098.851562 1139.308594 1054.570312 L 1072.609375 1067.171875 "/>
<path fill-rule="nonzero" fill="rgb(13.330078%, 51.756287%, 66.992188%)" fill-opacity="1" d="M 807.316406 1376.191406 C 807.316406 1376.191406 842.328125 1273.738281 875.308594 1226.871094 C 881.976562 1243.730469 886.609375 1257.988281 886.609375 1257.988281 C 886.609375 1257.988281 916.25 1193.890625 940.148438 1153.871094 L 940.335938 1193.710938 C 978.3125 1140.351562 1062.789062 1075.878906 1132.269531 1070.128906 L 1106.519531 1039.199219 C 900.316406 1044.941406 763.59375 1141.28125 807.316406 1376.191406 "/>
<path fill-rule="nonzero" fill="rgb(13.330078%, 51.756287%, 66.992188%)" fill-opacity="1" d="M 764.703125 1052.910156 C 764.703125 1052.910156 836.03125 1017.890625 877.53125 1010.660156 C 872.15625 1022.890625 867.15625 1032.710938 867.15625 1032.710938 C 867.15625 1032.710938 915.695312 1014.929688 948.855469 1006.589844 L 928.292969 1027.148438 C 975.722656 1019.371094 1052.789062 1029.75 1091.878906 1062.71875 L 1094.46875 1033.269531 C 984.613281 929.519531 863.820312 908.578125 764.703125 1052.910156 "/>
<path fill-rule="nonzero" fill="rgb(13.330078%, 51.756287%, 66.992188%)" fill-opacity="1" d="M 1475.191406 1045.679688 C 1475.191406 1045.679688 1383.300781 1013.070312 1333.648438 1010.660156 C 1343.46875 1025.488281 1352.179688 1037.160156 1352.179688 1037.160156 C 1352.179688 1037.160156 1291.230469 1022.519531 1250.839844 1017.328125 L 1280.671875 1040.308594 C 1224.160156 1038.269531 1139.121094 1064.390625 1104.660156 1113.300781 L 1092.621094 1075.878906 C 1186.371094 924.699219 1317.898438 877.460938 1475.191406 1045.679688 "/>
<path fill-rule="nonzero" fill="rgb(13.330078%, 51.756287%, 66.992188%)" fill-opacity="1" d="M 1128.75 1056.609375 C 1128.75 1056.609375 1273.261719 1093.851562 1324.390625 1191.480469 C 1375.519531 1289.300781 1354.03125 1400.28125 1354.03125 1400.28125 C 1354.03125 1400.28125 1322.910156 1303.941406 1293.449219 1257.070312 C 1287.710938 1271.148438 1283.628906 1283.191406 1283.628906 1283.191406 C 1283.628906 1283.191406 1257.140625 1221.679688 1235.828125 1182.589844 L 1235.828125 1217.980469 C 1201.929688 1164.621094 1126.710938 1094.589844 1064.828125 1079.03125 L 1128.75 1056.609375 "/>
<path fill-rule="nonzero" fill="rgb(13.330078%, 51.756287%, 66.992188%)" fill-opacity="1" d="M 1097.441406 1041.96875 C 1097.441406 1041.96875 1082.988281 931.371094 1135.050781 882.460938 C 1186.921875 833.738281 1267.699219 836.519531 1267.699219 836.519531 C 1267.699219 836.519531 1211.191406 870.609375 1187.660156 897.648438 C 1198.78125 900.25 1207.859375 901.910156 1207.859375 901.910156 C 1207.859375 901.910156 1173.769531 928.589844 1153.199219 948.601562 L 1177.101562 944.710938 C 1150.421875 975.839844 1123.75 1039.199219 1130.230469 1086.441406 L 1097.441406 1041.96875 "/>
<path fill-rule="nonzero" fill="rgb(13.330078%, 51.756287%, 66.992188%)" fill-opacity="1" d="M 1109.851562 1014 C 1109.851562 1014 1066.691406 910.988281 997.210938 894.871094 C 927.738281 878.761719 859.375 921.921875 859.375 921.921875 C 859.375 921.921875 925.328125 922.851562 959.230469 934.519531 C 951.082031 942.300781 943.855469 948.421875 943.855469 948.421875 C 943.855469 948.421875 986.835938 954.160156 1014.808594 961.199219 L 992.023438 969.71875 C 1030.738281 983.238281 1085.769531 1024.738281 1103.921875 1068.839844 L 1109.851562 1014 "/>
<path fill-rule="nonzero" fill="rgb(13.330078%, 51.756287%, 66.992188%)" fill-opacity="1" d="M 644.097656 1411.019531 C 644.097656 1411.019531 690.785156 1455.109375 725.242188 1521.441406 C 757.109375 1582.578125 769.335938 1682.621094 761.738281 1729.121094 C 754.328125 1775.808594 741.917969 1791.179688 722.464844 1821.378906 C 702.457031 1852.691406 676.335938 1882.519531 650.582031 1909.378906 C 672.996094 1899.011719 695.414062 1888.449219 717.460938 1877.890625 C 739.324219 1867.511719 761.183594 1856.949219 782.675781 1846.390625 C 787.308594 1831.390625 793.050781 1813.039062 797.867188 1791 C 802.683594 1768.769531 808.242188 1768.769531 808.425781 1712.628906 C 808.796875 1656.308594 783.414062 1549.410156 747.84375 1494.761719 C 709.125 1435.289062 672.257812 1400.089844 668.183594 1401.761719 C 664.105469 1403.238281 652.0625 1407.871094 644.097656 1411.019531 "/>
<path fill-rule="nonzero" fill="rgb(13.330078%, 51.756287%, 66.992188%)" fill-opacity="1" d="M 686.523438 1403.800781 C 703.195312 1404.351562 781.75 1409.171875 823.0625 1454.558594 C 869.378906 1505.691406 873.824219 1576.460938 873.824219 1576.460938 C 873.824219 1576.460938 839.921875 1522.921875 814.726562 1499.210938 C 813.429688 1508.660156 812.6875 1516.621094 812.6875 1516.621094 C 812.6875 1516.621094 786.9375 1483.460938 768.039062 1463.078125 L 773.410156 1484.570312 C 750.808594 1463.449219 709.3125 1428.621094 673.183594 1414.730469 C 668.738281 1449.929688 677.445312 1495.691406 689.859375 1523.851562 L 672.441406 1512.179688 C 684.671875 1535.519531 706.160156 1568.679688 706.160156 1568.679688 C 706.160156 1568.679688 698.9375 1566.828125 690.042969 1565.160156 C 703.382812 1594.988281 740.433594 1642.050781 740.433594 1642.050781 C 638.167969 1598.691406 612.789062 1519.960938 644.839844 1431.769531 C 631.683594 1459.75 623.53125 1492.71875 622.050781 1516.808594 L 611.492188 1498.839844 C 611.863281 1525.511719 616.121094 1565.351562 616.121094 1565.351562 C 616.121094 1565.351562 610.378906 1560.53125 602.96875 1555.339844 C 601.300781 1588.5 613.527344 1647.601562 613.527344 1647.601562 C 542.941406 1568.679688 551.652344 1489.019531 613.898438 1422.511719 C 593.890625 1432.511719 574.992188 1446.960938 562.765625 1461.039062 L 566.101562 1437.878906 C 550.722656 1458.628906 530.34375 1492.910156 530.34375 1492.910156 C 530.34375 1492.910156 529.234375 1484.019531 527.382812 1473.449219 C 507.003906 1497.351562 480.695312 1553.488281 480.695312 1553.488281 C 479.027344 1433.070312 533.496094 1384.898438 613.15625 1384.53125 C 598.152344 1376.929688 582.035156 1372.300781 569.4375 1371.191406 L 581.109375 1363.039062 C 564.0625 1363.039062 538.683594 1366 538.683594 1366 C 538.683594 1366 541.832031 1361.558594 545.351562 1355.808594 C 524.230469 1354.140625 486.4375 1363.21875 486.4375 1363.21875 C 486.4375 1363.21875 519.230469 1328.578125 561.285156 1327.46875 C 583.699219 1327.101562 605.5625 1341.730469 621.125 1355.628906 C 615.382812 1334.878906 609.453125 1299.488281 624.460938 1275.589844 C 647.0625 1240.019531 693.746094 1229.828125 693.746094 1229.828125 C 693.746094 1229.828125 666.328125 1257.621094 656.878906 1276.519531 C 663.734375 1276.328125 669.109375 1275.960938 669.109375 1275.960938 C 669.109375 1275.960938 653.546875 1296.160156 644.652344 1310.789062 L 653.359375 1306.898438 C 672.628906 1257.808594 715.054688 1231.5 787.863281 1245.578125 C 787.863281 1245.578125 743.398438 1260.398438 723.019531 1274.671875 C 730.246094 1277.628906 736.359375 1279.671875 736.359375 1279.671875 C 736.359375 1279.671875 708.570312 1292.269531 691.15625 1302.460938 L 708.382812 1302.640625 C 690.785156 1315.238281 670.035156 1339.320312 660.03125 1363.410156 C 721.722656 1269.480469 808.613281 1235.210938 916.621094 1319.5 C 916.621094 1319.5 850.109375 1309.5 814.910156 1314.308594 C 822.320312 1322.828125 828.804688 1329.320312 828.804688 1329.320312 C 828.804688 1329.320312 784.898438 1327.46875 756.183594 1329.128906 L 778.042969 1340.621094 C 751.734375 1344.328125 717.277344 1357.660156 690.042969 1376.558594 C 813.429688 1325.429688 921.4375 1338.949219 968.867188 1467.160156 C 968.867188 1467.160156 912.359375 1424.921875 875.679688 1411.019531 C 877.160156 1421.949219 878.828125 1430.839844 878.828125 1430.839844 C 878.828125 1430.839844 838.625 1406.949219 810.09375 1393.789062 L 823.246094 1414.539062 C 788.605469 1401.761719 731.355469 1394.898438 686.523438 1403.800781 "/>
<path fill-rule="nonzero" fill="rgb(13.330078%, 51.756287%, 66.992188%)" fill-opacity="1" d="M 746.363281 1820.828125 C 855.667969 1771.359375 943.855469 1739.308594 977.203125 1722.449219 C 1010.550781 1705.589844 1055.761719 1660.941406 1064.089844 1657.980469 C 1072.429688 1655.011719 1173.578125 1644.640625 1202.109375 1632.601562 C 1230.640625 1620.738281 1248.058594 1604.988281 1272.511719 1586.101562 C 1296.410156 1567.570312 1314.378906 1552.191406 1325.871094 1544.601562 C 1337.539062 1537 1424.621094 1524.960938 1424.621094 1524.960938 C 1424.621094 1524.960938 1436.839844 1531.808594 1452.78125 1544.230469 C 1468.710938 1556.820312 1488.898438 1575.351562 1504.28125 1598.320312 C 1519.839844 1621.480469 1554.121094 1633.519531 1586.539062 1640.929688 C 1619.140625 1648.339844 1645.640625 1650.199219 1658.96875 1653.351562 C 1792.179688 1683.730469 1928.910156 1701.699219 2060.628906 1738.941406 C 2213.101562 1782.101562 2351.488281 1843.800781 2469.878906 1920.128906 C 2670.148438 2049.441406 2233.289062 1879.179688 1679.910156 1824.898438 C 1343.28125 1791.738281 965.53125 1832.128906 655.953125 1920.308594 C 622.234375 1933.101562 588.703125 1946.058594 554.984375 1959.589844 C 587.777344 1929.578125 615.011719 1916.609375 646.507812 1895.121094 C 675.222656 1875.660156 707.273438 1838.609375 746.363281 1820.828125 "/>
<path fill-rule="nonzero" fill="rgb(6.272888%, 65.818787%, 91.796875%)" fill-opacity="1" d="M 1181.550781 1990.160156 C 1043.710938 2014.980469 603.894531 2108.539062 705.050781 2102.238281 C 806.019531 2095.941406 935.890625 2088.53125 1072.429688 2086.679688 C 1208.96875 2084.828125 1337.359375 2083.339844 1284.738281 2101.5 C 1232.308594 2119.660156 746.734375 2171.160156 888.089844 2182.089844 C 1029.449219 2193.019531 1245.089844 2207.101562 1175.808594 2221 C 568.878906 2343.269531 1917.230469 2263.421875 1930.761719 2259.351562 C 1971.890625 2246.929688 1708.628906 2205.25 1758.648438 2195.988281 C 1808.851562 2186.71875 2078.230469 2184.871094 2131.578125 2184.308594 C 2185.128906 2183.761719 1971.148438 2160.96875 1784.210938 2137.628906 C 1597.46875 2114.28125 1419.980469 2091.5 1496.308594 2080.011719 C 1572.828125 2068.339844 1778.46875 2066.300781 1967.628906 2072.601562 C 2156.78125 2079.078125 2330.191406 2094.28125 2351.308594 2086.121094 C 2372.429688 2077.96875 2207.171875 2047.769531 2044.328125 2027.210938 C 1881.851562 2006.460938 1721.039062 1995.339844 1760.691406 1991.820312 C 1800.148438 1988.300781 1976.328125 1985.339844 2142.140625 1994.050781 C 2308.328125 2002.761719 2464.320312 2024.988281 2478.210938 2021.648438 C 2496.371094 2017.210938 2342.789062 1971.261719 2201.609375 1937.359375 C 1793.480469 1839.910156 1239.71875 1821.75 780.082031 1914.199219 C 358.976562 2018.691406 1311.980469 1966.628906 1181.550781 1990.160156 "/>
<path fill-rule="nonzero" fill="rgb(12.547302%, 10.594177%, 9.423828%)" fill-opacity="1" d="M 2312.769531 840.410156 C 2312.769531 840.410156 2260.339844 869.679688 2232.371094 891.539062 C 2204.390625 913.589844 2201.058594 923.03125 2183.828125 931.191406 C 2166.601562 939.339844 2163.640625 940.261719 2163.640625 940.261719 C 2163.640625 940.261719 2145.109375 941.929688 2122.691406 940.261719 C 2100.460938 938.410156 2089.710938 938.039062 2056.550781 946.558594 C 2023.390625 955.269531 2007.089844 954.339844 2007.089844 954.339844 C 2007.089844 954.339844 2013.941406 960.828125 2047.46875 960.828125 C 2081.011719 960.828125 2099.160156 953.96875 2117.128906 953.96875 C 2135.289062 953.96875 2151.960938 953.601562 2151.960938 953.601562 C 2151.960938 953.601562 2167.339844 968.421875 2187.160156 970.460938 C 2206.800781 972.308594 2215.140625 966.390625 2221.25 964.898438 C 2227.550781 963.421875 2228.289062 963.421875 2228.289062 963.421875 C 2228.289062 963.421875 2224.21875 959.53125 2217.730469 958.050781 C 2211.429688 956.570312 2201.058594 948.230469 2201.058594 948.230469 C 2201.058594 948.230469 2235.890625 914.878906 2252.558594 900.800781 C 2269.238281 886.71875 2291.101562 882.460938 2300.730469 870.609375 C 2310.359375 858.75 2312.769531 840.410156 2312.769531 840.410156 Z M 2097.308594 1143.871094 Z M 2155.671875 1059.019531 C 2155.671875 1059.019531 2119.359375 1079.210938 2100.089844 1094.398438 C 2080.820312 1109.601562 2078.410156 1116.078125 2066.558594 1121.640625 C 2054.699219 1127.378906 2052.660156 1127.941406 2052.660156 1127.941406 C 2052.660156 1127.941406 2039.878906 1129.230469 2024.320312 1127.941406 C 2008.941406 1126.828125 2001.53125 1126.449219 1978.558594 1132.378906 C 1955.769531 1138.308594 1944.46875 1137.761719 1944.46875 1137.761719 C 1944.46875 1137.761719 1949.28125 1142.199219 1972.441406 1142.199219 C 1995.601562 1142.199219 2008.011719 1137.390625 2020.609375 1137.390625 C 2033.019531 1137.390625 2044.511719 1137.199219 2044.511719 1137.199219 C 2044.511719 1137.199219 2055.261719 1147.390625 2068.78125 1148.871094 C 2082.488281 1150.171875 2088.230469 1146.089844 2092.488281 1144.980469 C 2096.570312 1144.058594 2097.308594 1143.871094 2097.308594 1143.871094 C 2097.308594 1143.871094 2094.351562 1141.28125 2090.089844 1140.351562 C 2085.640625 1139.238281 2078.601562 1133.488281 2078.601562 1133.488281 C 2078.601562 1133.488281 2102.5 1110.519531 2113.980469 1100.699219 C 2125.46875 1091.070312 2140.660156 1088.101562 2147.328125 1079.769531 C 2154 1071.621094 2155.671875 1059.019531 2155.671875 1059.019531 Z M 1903.339844 1001.960938 C 1903.339844 1001.960938 1838.871094 1037.898438 1804.410156 1064.761719 C 1770.128906 1091.808594 1765.871094 1103.480469 1744.75 1113.488281 C 1723.628906 1123.488281 1719.929688 1124.601562 1719.929688 1124.601562 C 1719.929688 1124.601562 1697.140625 1126.640625 1669.71875 1124.601562 C 1642.121094 1122.378906 1628.960938 1121.820312 1588.199219 1132.378906 C 1547.449219 1143.128906 1527.441406 1142.019531 1527.441406 1142.019531 C 1527.441406 1142.019531 1535.960938 1149.980469 1577.089844 1149.980469 C 1618.398438 1149.980469 1640.628906 1141.460938 1662.871094 1141.460938 C 1684.910156 1141.460938 1705.660156 1140.910156 1705.660156 1140.910156 C 1705.660156 1140.910156 1724.558594 1159.25 1748.828125 1161.660156 C 1773.101562 1164.058594 1783.289062 1156.839844 1790.878906 1154.800781 C 1798.289062 1152.949219 1799.410156 1152.949219 1799.410156 1152.949219 C 1799.410156 1152.949219 1794.21875 1148.320312 1786.441406 1146.460938 C 1778.660156 1144.609375 1766.058594 1134.421875 1766.058594 1134.421875 C 1766.058594 1134.421875 1808.671875 1093.480469 1829.050781 1076.058594 C 1849.609375 1058.828125 1876.480469 1053.460938 1888.328125 1039.011719 C 1900.371094 1024.371094 1903.339844 1001.960938 1903.339844 1001.960938 "/>
</svg>
